<svg width="80" height="36" viewBox="0 0 80 36" fill="none" xmlns="http://www.w3.org/2000/svg">
<rect width="80" height="36" rx="18" fill="white"/>
<g clip-path="url(#clip0_1385_135221)">
<path fill-rule="evenodd" clip-rule="evenodd" d="M35.7441 10.2428C35.4195 10.5643 35.4173 11.0855 35.7463 11.4071L40.6118 16.1717L40.6977 16.2451C41.0266 16.4897 41.4967 16.4642 41.7952 16.1684C41.957 16.0082 42.0395 15.7975 42.0395 15.5879C42.0395 15.3772 41.957 15.1655 41.793 15.0052L36.9276 10.2395L36.8416 10.1661C36.5127 9.92149 36.0427 9.94706 35.7441 10.2428ZM35.6709 24.6783C35.4198 25.001 35.4465 25.4636 35.744 25.7583C36.0697 26.0798 36.5995 26.0809 36.9275 25.7594L44.2535 18.5828L44.3287 18.4987C44.4427 18.3523 44.5 18.1766 44.5 18.0001C44.5 17.7905 44.4175 17.5798 44.2557 17.4196C43.93 17.097 43.4002 17.0959 43.0723 17.4174L35.7462 24.594L35.6709 24.6783Z" fill="#001E5C"/>
</g>
<defs>
<clipPath id="clip0_1385_135221">
<rect width="24" height="24" fill="white" transform="translate(28 6)"/>
</clipPath>
</defs>
</svg>
