<svg width="80" height="36" viewBox="0 0 80 36" fill="none" xmlns="http://www.w3.org/2000/svg">
<rect x="-0.75" y="0.75" width="78.5" height="34.5" rx="17.25" transform="matrix(-1 0 0 1 78.5 0)" stroke="white" stroke-width="1.5"/>
<g clip-path="url(#clip0_1385_135217)">
<path fill-rule="evenodd" clip-rule="evenodd" d="M44.2559 10.2428C44.5805 10.5643 44.5827 11.0855 44.2537 11.4071L39.3882 16.1717L39.3023 16.2451C38.9734 16.4897 38.5033 16.4642 38.2048 16.1684C38.043 16.0082 37.9605 15.7975 37.9605 15.5879C37.9605 15.3772 38.043 15.1655 38.207 15.0052L43.0724 10.2395L43.1584 10.1661C43.4873 9.92149 43.9573 9.94706 44.2559 10.2428ZM44.3291 24.6783C44.5802 25.001 44.5535 25.4636 44.256 25.7583C43.9303 26.0798 43.4005 26.0809 43.0725 25.7594L35.7465 18.5828L35.6713 18.4987C35.5573 18.3523 35.5 18.1766 35.5 18.0001C35.5 17.7905 35.5825 17.5798 35.7443 17.4196C36.07 17.097 36.5998 17.0959 36.9277 17.4174L44.2538 24.594L44.3291 24.6783Z" fill="white"/>
</g>
<defs>
<clipPath id="clip0_1385_135217">
<rect width="24" height="24" fill="white" transform="matrix(-1 0 0 1 52 6)"/>
</clipPath>
</defs>
</svg>
